<svg width="24" height="24" viewBox="0 0 24 24" fill="none" xmlns="http://www.w3.org/2000/svg">
<path d="M15.7802 12.7186C15.85 12.649 15.9053 12.5663 15.943 12.4754C15.9807 12.3844 16.0001 12.2868 16 12.1883V11.8088C15.9977 11.6018 15.9145 11.4151 15.7802 11.2786L10.6405 6.14855C10.5941 6.1015 10.5388 6.06414 10.4778 6.03863C10.4169 6.01313 10.3515 6 10.2854 6C10.2193 6 10.1539 6.01313 10.0929 6.03863C10.0319 6.06414 9.97665 6.1015 9.93025 6.14855L9.22 6.8588C9.17326 6.9043 9.13611 6.9587 9.11074 7.01879C9.08537 7.07888 9.0723 7.14345 9.0723 7.20868C9.0723 7.27391 9.08537 7.33847 9.11074 7.39856C9.13611 7.45866 9.17326 7.51306 9.22 7.55855L13.6705 11.9986L9.22 16.4386C9.17295 16.485 9.13558 16.5402 9.11008 16.6012C9.08458 16.6622 9.07145 16.7276 9.07145 16.7937C9.07145 16.8598 9.08458 16.9252 9.11008 16.9861C9.13558 17.0471 9.17295 17.1024 9.22 17.1488L9.93025 17.8486C9.97665 17.8956 10.0319 17.933 10.0929 17.9585C10.1539 17.984 10.2193 17.9971 10.2854 17.9971C10.3515 17.9971 10.4169 17.984 10.4778 17.9585C10.5388 17.933 10.5941 17.8956 10.6405 17.8486L15.7802 12.7186Z" fill="#22323E"/>
</svg>
