<svg width="25" height="24" viewBox="0 0 25 24" fill="none" xmlns="http://www.w3.org/2000/svg">
<path d="M20.668 13V17.8C20.668 18.9201 20.668 19.4802 20.45 19.908C20.2582 20.2843 19.9523 20.5903 19.5759 20.782C19.1481 21 18.5881 21 17.468 21H7.86797C6.74786 21 6.18781 21 5.75999 20.782C5.38366 20.5903 5.0777 20.2843 4.88596 19.908C4.66797 19.4802 4.66797 18.9201 4.66797 17.8V13M9.66797 10H15.668M9.95368 14H15.3823C17.5147 14 18.5809 14 19.4035 13.6039C20.2199 13.2107 20.8787 12.552 21.2718 11.7355C21.668 10.913 21.668 9.84674 21.668 7.71429C21.668 6.11494 21.668 5.31527 21.3709 4.69835C21.076 4.08603 20.5819 3.59197 19.9696 3.29709C19.3527 3 18.553 3 16.9537 3H8.38225C6.78291 3 5.98324 3 5.36632 3.29709C4.75399 3.59197 4.25994 4.08603 3.96506 4.69835C3.66797 5.31527 3.66797 6.11494 3.66797 7.71429C3.66797 9.84674 3.66797 10.913 4.06409 11.7355C4.45727 12.552 5.116 13.2107 5.93243 13.6039C6.755 14 7.82122 14 9.95368 14Z" stroke="#E31B54" stroke-width="2" stroke-linecap="round" stroke-linejoin="round"/>
</svg>
