<svg width="20" height="20" viewBox="0 0 20 20" fill="none" xmlns="http://www.w3.org/2000/svg">
<path d="M18.3346 8.33464V12.5013C18.3346 16.668 16.668 18.3346 12.5013 18.3346H7.5013C3.33464 18.3346 1.66797 16.668 1.66797 12.5013V7.5013C1.66797 3.33464 3.33464 1.66797 7.5013 1.66797H11.668" stroke="white" stroke-width="1.5" stroke-linecap="round" stroke-linejoin="round"/>
<path d="M10.8328 15.8616L10.8325 15.8616C10.6494 15.8063 10.4846 15.7248 10.3385 15.617L10.3379 15.6166C10.1963 15.5095 10.0689 15.3802 9.9556 15.2292L9.92514 15.1886L9.95865 15.1505L10.4286 14.6155L10.4804 14.5565L10.5263 14.6202C10.6865 14.8425 10.8411 14.9888 10.9888 15.0659C11.143 15.1413 11.31 15.1792 11.4906 15.1792C11.588 15.1792 11.672 15.1651 11.7437 15.1382L11.7444 15.1379C11.8206 15.1105 11.876 15.0754 11.9142 15.0348C11.9501 14.9935 11.9681 14.9451 11.9681 14.8867C11.9681 14.8428 11.9586 14.8048 11.9406 14.7713L11.9397 14.7697L11.9397 14.7697C11.9208 14.7319 11.8937 14.6991 11.8575 14.6713L11.8552 14.6695L11.8552 14.6694C11.8171 14.6371 11.7706 14.6085 11.7152 14.5838L11.7126 14.5827L11.7127 14.5826C11.6568 14.5547 11.594 14.5311 11.5242 14.512L11.5216 14.5113L11.5217 14.5113C11.4518 14.489 11.375 14.4714 11.2911 14.4585L11.2864 14.4578L11.2865 14.4576C11.0971 14.4136 10.9301 14.3609 10.786 14.2992L10.7848 14.2987L10.7848 14.2987C10.6395 14.2329 10.5166 14.1525 10.4172 14.0567L10.4164 14.0559L10.4164 14.0559C10.3174 13.9569 10.2425 13.8449 10.1926 13.7199L10.192 13.7185L10.192 13.7185C10.1457 13.5937 10.1231 13.4545 10.1231 13.3017C10.1231 13.1422 10.1586 12.9939 10.2301 12.8579C10.3009 12.72 10.3982 12.6016 10.5216 12.5029L10.5222 12.5024L10.5222 12.5024C10.6483 12.4044 10.7914 12.3294 10.9512 12.2773L10.9516 12.2772L10.9516 12.2772C11.1147 12.2251 11.2862 12.1992 11.4656 12.1992C11.6833 12.1992 11.8761 12.223 12.0431 12.2717C12.2097 12.3203 12.3553 12.3936 12.4789 12.4923C12.6049 12.587 12.71 12.7027 12.7938 12.839L12.8201 12.8817L12.7841 12.9166L12.3091 13.3766L12.2581 13.4259L12.2156 13.3692C12.1487 13.28 12.076 13.2059 11.9978 13.1465L11.9968 13.1457L11.9968 13.1457C11.9228 13.0871 11.8413 13.0441 11.7521 13.0164L11.7496 13.0156L11.7496 13.0156C11.6631 12.9847 11.5735 12.9692 11.4806 12.9692C11.376 12.9692 11.2888 12.9835 11.2175 13.0102L11.2154 13.0111L11.2154 13.011C11.1449 13.0345 11.0921 13.07 11.054 13.1163C11.0204 13.1577 11.0031 13.2068 11.0031 13.2667C11.0031 13.3158 11.0152 13.3572 11.0382 13.3929C11.0623 13.4304 11.0982 13.4659 11.1484 13.4985C11.2003 13.5289 11.264 13.557 11.3404 13.5824C11.4176 13.6082 11.5035 13.6309 11.598 13.6505C11.5981 13.6505 11.5982 13.6505 11.5983 13.6505L11.5856 13.7117C11.7689 13.7484 11.9339 13.7967 12.0806 13.8567C12.2273 13.9167 12.3523 13.9901 12.4556 14.0767L10.8328 15.8616ZM10.8328 15.8616C11.0194 15.9169 11.2238 15.9442 11.4456 15.9442C11.719 15.9442 11.9611 15.8998 12.1705 15.8091L12.1713 15.8087C12.3808 15.7144 12.5469 15.5789 12.6673 15.4019C12.7888 15.2231 12.8481 15.0087 12.8481 14.7617C12.8481 14.6101 12.8181 14.4721 12.7567 14.3491M10.8328 15.8616L12.4949 14.0281C12.6083 14.1169 12.6958 14.2239 12.7567 14.3491M12.7567 14.3491C12.7566 14.349 12.7566 14.3489 12.7565 14.3488L12.7006 14.3767L12.7568 14.3494C12.7568 14.3493 12.7567 14.3492 12.7567 14.3491ZM5.81577 15.8673L5.83441 15.8942H5.86719H6.78719H6.90976L6.83777 15.795L5.60435 14.0952L6.78874 12.3671L6.85579 12.2692H6.73719H5.86719H5.83343L5.81492 12.2975L5.10505 13.3804L4.36378 12.2964L4.34516 12.2692H4.31219H3.39219H3.27015L3.34147 12.3682L4.54599 14.0407L3.316 15.7959L3.24707 15.8942H3.36719H4.23719H4.27012L4.28874 15.8671L5.04905 14.7578L5.81577 15.8673ZM7.2159 15.8317V15.8942H7.2784H9.6134H9.6759V15.8317V15.1567V15.0942H9.6134H8.0909V12.3317V12.2692H8.0284H7.2784H7.2159V12.3317V15.8317ZM15.4203 15.8673L15.4389 15.8942H15.4717H16.3917H16.5143L16.4423 15.795L15.2089 14.0952L16.3932 12.3671L16.4603 12.2692H16.3417H15.4717H15.4379L15.4194 12.2975L14.7095 13.3804L13.9683 12.2964L13.9497 12.2692H13.9167H12.9967H12.8747L12.946 12.3682L14.1505 14.0407L12.9205 15.7959L12.8516 15.8942H12.9717H13.8417H13.8746L13.8932 15.8671L14.6536 14.7578L15.4203 15.8673Z" fill="white" stroke="white" stroke-width="0.125"/>
<path d="M18.3346 8.33463H15.0013C12.5013 8.33463 11.668 7.5013 11.668 5.0013V1.66797L18.3346 8.33463Z" stroke="white" stroke-width="1.5" stroke-linecap="round" stroke-linejoin="round"/>
<path d="M4.16797 5.83203H9.16797" stroke="white" stroke-width="1.5" stroke-linecap="round" stroke-linejoin="round"/>
<path d="M4.16797 9.16797H9.16797" stroke="white" stroke-width="1.5" stroke-linecap="round" stroke-linejoin="round"/>
</svg>
