<svg width="25" height="24" viewBox="0 0 25 24" fill="none" xmlns="http://www.w3.org/2000/svg">
<path d="M17.332 14.4996V11.494C17.332 11.3145 17.332 11.2248 17.3047 11.1456C17.2805 11.0755 17.2411 11.0117 17.1892 10.9587C17.1306 10.8989 17.0503 10.8587 16.8898 10.7785L12.332 8.49958M4.33203 9.49958V16.3062C4.33203 16.6781 4.33203 16.8641 4.39005 17.0269C4.44134 17.1708 4.52493 17.3011 4.63441 17.4077C4.75825 17.5283 4.9273 17.6057 5.26538 17.7607L11.6654 20.694C11.9106 20.8064 12.0332 20.8626 12.161 20.8848C12.2742 20.9045 12.3899 20.9045 12.5031 20.8848C12.6308 20.8626 12.7534 20.8064 12.9987 20.694L19.3987 17.7607C19.7368 17.6057 19.9058 17.5283 20.0297 17.4077C20.1391 17.3011 20.2227 17.1708 20.274 17.0269C20.332 16.8641 20.332 16.6781 20.332 16.3062V9.49958M2.33203 8.49958L11.9743 3.67846C12.1054 3.61287 12.171 3.58008 12.2398 3.56717C12.3008 3.55574 12.3633 3.55574 12.4242 3.56717C12.493 3.58008 12.5586 3.61287 12.6898 3.67846L22.332 8.49958L12.6898 13.3207C12.5586 13.3863 12.493 13.4191 12.4242 13.432C12.3633 13.4434 12.3008 13.4434 12.2398 13.432C12.171 13.4191 12.1054 13.3863 11.9743 13.3207L2.33203 8.49958Z" stroke="#E31B54" stroke-width="2" stroke-linecap="round" stroke-linejoin="round"/>
</svg>
