<svg width="48" height="48" viewBox="0 0 48 48" fill="none" xmlns="http://www.w3.org/2000/svg">
<rect width="48" height="48" rx="24" fill="#FF4B4B"/>
<g clip-path="url(#clip0_3772_38821)">
<path fill-rule="evenodd" clip-rule="evenodd" d="M35.8752 33.2904C35.9484 33.0048 36 32.7096 36 32.4V22.4736L30.4656 26.9484L35.8752 33.2904ZM24.7548 31.5684L28.6008 28.458L34.4676 35.3376C33.8808 35.7516 33.1716 36 32.4 36H15.6C14.8476 36 14.1492 35.766 13.5708 35.37L19.446 28.4952L23.2452 31.5684C23.466 31.7472 23.7324 31.836 24 31.836C24.2676 31.836 24.534 31.746 24.7548 31.5684ZM12 32.4V22.4736L17.5776 26.9856L12.1428 33.3468C12.0588 33.042 12 32.7288 12 32.4ZM33.6 21.3276V13.2C33.6 12.5376 33.0636 12 32.4012 12H15.6C14.4 12.0936 14.4 13.2 14.4 13.2V21.3276L24 29.0928L33.6 21.3276ZM27.7297 16.5758C28.0901 16.2153 28.0901 15.6308 27.7297 15.2704C27.3692 14.9099 26.7848 14.9099 26.4244 15.2704L24 17.6949L21.5756 15.2704C21.2152 14.9099 20.6308 14.9099 20.2703 15.2704C19.9099 15.6309 19.9099 16.2153 20.2703 16.5758L22.6947 19.0004L20.2711 21.4242C19.9106 21.7847 19.9106 22.3691 20.2711 22.7296C20.6315 23.0901 21.2159 23.0901 21.5764 22.7296L24 20.3058L26.4236 22.7296C26.7841 23.0901 27.3685 23.0901 27.7289 22.7296C28.0894 22.3692 28.0894 21.7847 27.7289 21.4242L25.3053 19.0004L27.7297 16.5758Z" fill="white"/>
</g>
<defs>
<clipPath id="clip0_3772_38821">
<rect width="24" height="24" fill="white" transform="translate(12 12)"/>
</clipPath>
</defs>
</svg>
