<svg width="12" height="12" viewBox="0 0 12 12" fill="none" xmlns="http://www.w3.org/2000/svg">
<rect width="12" height="12" fill="#F5F5F5"/>
<g id="Phase 3">
<path d="M-5877 -8523C-5877 -8524.1 -5876.1 -8525 -5875 -8525H11050C11051.1 -8525 11052 -8524.1 11052 -8523V19506C11052 19507.1 11051.1 19508 11050 19508H-5875C-5876.1 19508 -5877 19507.1 -5877 19506V-8523Z" fill="#F79B9B" fill-opacity="0.21"/>
<path d="M-5875 -8524H11050V-8526H-5875V-8524ZM11051 -8523V19506H11053V-8523H11051ZM11050 19507H-5875V19509H11050V19507ZM-5876 19506V-8523H-5878V19506H-5876ZM-5875 19507C-5875.55 19507 -5876 19506.6 -5876 19506H-5878C-5878 19507.7 -5876.66 19509 -5875 19509V19507ZM11051 19506C11051 19506.6 11050.6 19507 11050 19507V19509C11051.7 19509 11053 19507.7 11053 19506H11051ZM11050 -8524C11050.6 -8524 11051 -8523.55 11051 -8523H11053C11053 -8524.66 11051.7 -8526 11050 -8526V-8524ZM-5875 -8526C-5876.66 -8526 -5878 -8524.66 -5878 -8523H-5876C-5876 -8523.55 -5875.55 -8524 -5875 -8524V-8526Z" fill="#F79B9B" fill-opacity="0.21"/>
<g id="Group 3355">
<g id="Frame 30">
<rect width="1440" height="1297" transform="translate(-291 -918)" fill="white"/>
<rect id="Rectangle 883" x="-47" y="-144" width="1165" height="218" rx="27" fill="#ECFDFE"/>
<circle id="Ellipse 93" cx="6" cy="6" r="6" fill="#0DBD1F"/>
</g>
</g>
</g>
</svg>
