<svg width="48" height="48" viewBox="0 0 48 48" fill="none" xmlns="http://www.w3.org/2000/svg">
<rect width="48" height="48" rx="24" fill="#FA3D4A"/>
<g clip-path="url(#clip0_3717_18687)">
<path d="M30.5662 23.5792H35.8574L34.9305 19.1299C34.8625 18.8038 34.5751 18.5703 34.242 18.5703H26.0977L30.5662 23.5792Z" fill="white"/>
<path d="M21.887 18.5703H13.756C13.4229 18.5703 13.1354 18.804 13.0675 19.1301L12.1406 23.5793H17.3806L21.887 18.5703Z" fill="white"/>
<path d="M24 22.543C23.6124 22.543 23.2969 22.8585 23.2969 23.2461C23.2969 23.6337 23.6124 23.949 24 23.949C24.3876 23.949 24.7031 23.6337 24.7031 23.2461C24.7031 22.8583 24.3876 22.543 24 22.543Z" fill="white"/>
<path d="M23.2734 32.1094H24.6797V35.9995H23.2734V32.1094Z" fill="white"/>
<path d="M30.2525 24.9879C30.0522 24.9879 29.8612 24.9023 29.7279 24.7527L24.7031 19.1201V15.5154H27.9C28.264 15.5154 28.489 15.1188 28.3022 14.8063L27.6758 13.758L28.3022 12.7097C28.489 12.3972 28.264 12.0005 27.9 12.0005H24.0084C24.0057 12.0004 24.0029 12 24 12C23.6116 12 23.2969 12.3148 23.2969 12.7031V19.1085L18.2172 24.7549C18.0837 24.9033 17.8938 24.9879 17.6944 24.9879H12V35.296C12 35.6843 12.3148 35.9991 12.7031 35.9991H21.8641V31.4059C21.8641 31.0177 22.1788 30.7028 22.5672 30.7028H25.3797C25.7681 30.7028 26.0828 31.0177 26.0828 31.4059V35.9991H35.2969C35.6852 35.9991 36 35.6843 36 35.296V24.9879H30.2525ZM16.2856 32.3434C16.2856 32.7318 15.9708 33.0465 15.5825 33.0465C15.1943 33.0465 14.8793 32.7318 14.8793 32.3434V31.4059C14.8793 31.0177 15.1943 30.7028 15.5825 30.7028C15.9708 30.7028 16.2856 31.0177 16.2856 31.4059V32.3434ZM16.2856 28.5936C16.2856 28.9819 15.9708 29.2967 15.5825 29.2967C15.1943 29.2967 14.8793 28.9819 14.8793 28.5936V27.6561C14.8793 27.2679 15.1943 26.9529 15.5825 26.9529C15.9708 26.9529 16.2856 27.2679 16.2856 27.6561V28.5936ZM19.0981 32.3434C19.0981 32.7318 18.7833 33.0465 18.395 33.0465C18.0068 33.0465 17.6918 32.7318 17.6918 32.3434V31.4059C17.6918 31.0177 18.0068 30.7028 18.395 30.7028C18.7833 30.7028 19.0981 31.0177 19.0981 31.4059V32.3434ZM19.0981 28.5936C19.0981 28.9819 18.7833 29.2967 18.395 29.2967C18.0068 29.2967 17.6918 28.9819 17.6918 28.5936V27.6561C17.6918 27.2679 18.0068 26.9529 18.395 26.9529C18.7833 26.9529 19.0981 27.2679 19.0981 27.6561V28.5936ZM23.2617 28.5936C23.2617 28.9819 22.947 29.2967 22.5586 29.2967C22.1702 29.2967 21.8555 28.9819 21.8555 28.5936V27.6561C21.8555 27.2679 22.1702 26.9529 22.5586 26.9529C22.947 26.9529 23.2617 27.2679 23.2617 27.6561V28.5936ZM21.8906 23.2471C21.8906 22.084 22.8369 21.1379 24 21.1379C25.1631 21.1379 26.1094 22.084 26.1094 23.2471C26.1094 24.4103 25.1631 25.3564 24 25.3564C22.8369 25.3564 21.8906 24.4103 21.8906 23.2471ZM26.1445 28.5936C26.1445 28.9819 25.8298 29.2967 25.4414 29.2967C25.053 29.2967 24.7383 28.9819 24.7383 28.5936V27.6561C24.7383 27.2679 25.053 26.9529 25.4414 26.9529C25.8298 26.9529 26.1445 27.2679 26.1445 27.6561V28.5936ZM30.1324 32.3434C30.1324 32.7318 29.8174 33.0465 29.4293 33.0465C29.0409 33.0465 28.7261 32.7318 28.7261 32.3434V31.4059C28.7261 31.0177 29.0409 30.7028 29.4293 30.7028C29.8174 30.7028 30.1324 31.0177 30.1324 31.4059V32.3434ZM30.1324 28.5936C30.1324 28.9819 29.8174 29.2967 29.4293 29.2967C29.0409 29.2967 28.7261 28.9819 28.7261 28.5936V27.6561C28.7261 27.2679 29.0409 26.9529 29.4293 26.9529C29.8174 26.9529 30.1324 27.2679 30.1324 27.6561V28.5936ZM32.9449 32.3434C32.9449 32.7318 32.6299 33.0465 32.2418 33.0465C31.8534 33.0465 31.5386 32.7318 31.5386 32.3434V31.4059C31.5386 31.0177 31.8534 30.7028 32.2418 30.7028C32.6299 30.7028 32.9449 31.0177 32.9449 31.4059V32.3434ZM32.9449 28.5936C32.9449 28.9819 32.6299 29.2967 32.2418 29.2967C31.8534 29.2967 31.5386 28.9819 31.5386 28.5936V27.6561C31.5386 27.2679 31.8534 26.9529 32.2418 26.9529C32.6299 26.9529 32.9449 27.2679 32.9449 27.6561V28.5936Z" fill="white"/>
</g>
<defs>
<clipPath id="clip0_3717_18687">
<rect width="24" height="24" fill="white" transform="translate(12 12)"/>
</clipPath>
</defs>
</svg>
