<svg width="48" height="48" viewBox="0 0 48 48" fill="none" xmlns="http://www.w3.org/2000/svg">
<rect width="48" height="48" rx="24" fill="#92C73D"/>
<g clip-path="url(#clip0_3717_18722)">
<path d="M36 32.4C36 32.7096 35.9484 33.0048 35.8752 33.2904L30.4656 26.9484L36 22.4736V32.4ZM28.6008 28.458L24.7548 31.5684C24.534 31.746 24.2676 31.836 24 31.836C23.7324 31.836 23.466 31.7472 23.2452 31.5684L19.446 28.4952L13.5708 35.37C14.1492 35.766 14.8476 36 15.6 36H32.4C33.1716 36 33.8808 35.7516 34.4676 35.3376L28.6008 28.458ZM12 22.4736V32.4C12 32.7288 12.0588 33.042 12.1428 33.3468L17.5776 26.9856L12 22.4736ZM33.6 13.2V21.3276L24 29.0928L14.4 21.3276V13.2C14.4 13.2 14.4 12.0936 15.6 12H32.4012C33.0636 12 33.6 12.5376 33.6 13.2ZM29.2608 15.564C28.7916 15.0948 28.0332 15.0948 27.564 15.564L22.8636 20.2644L20.436 17.8368C19.9668 17.3676 19.2084 17.3676 18.7392 17.8368C18.27 18.306 18.27 19.0644 18.7392 19.5336L22.014 22.8084C22.248 23.0424 22.5552 23.16 22.8624 23.16C23.1696 23.16 23.4768 23.0424 23.7108 22.8084L29.2596 17.2596C29.7288 16.7916 29.7288 16.032 29.2608 15.564Z" fill="white"/>
</g>
<defs>
<clipPath id="clip0_3717_18722">
<rect width="24" height="24" fill="white" transform="translate(12 12)"/>
</clipPath>
</defs>
</svg>
