<svg width="32" height="32" viewBox="0 0 32 32" fill="none" xmlns="http://www.w3.org/2000/svg">
<path d="M16.6667 3.99935H10.4C8.15979 3.99935 7.03969 3.99935 6.18404 4.43532C5.43139 4.81882 4.81947 5.43074 4.43597 6.18339C4 7.03903 4 8.15914 4 10.3993V21.5993C4 23.8396 4 24.9597 4.43597 25.8153C4.81947 26.568 5.43139 27.1799 6.18404 27.5634C7.03969 27.9993 8.15979 27.9993 10.4 27.9993H22.6667C23.9066 27.9993 24.5266 27.9993 25.0353 27.8631C26.4156 27.4932 27.4938 26.415 27.8637 25.0346C28 24.526 28 23.906 28 22.666M25.3333 10.666V2.66602M21.3333 6.66602H29.3333M14 11.3327C14 12.8054 12.8061 13.9993 11.3333 13.9993C9.86057 13.9993 8.66667 12.8054 8.66667 11.3327C8.66667 9.85992 9.86057 8.66602 11.3333 8.66602C12.8061 8.66602 14 9.85992 14 11.3327ZM19.9867 15.8902L8.7082 26.1434C8.07382 26.7201 7.75663 27.0085 7.72857 27.2583C7.70425 27.4748 7.78727 27.6895 7.95091 27.8334C8.1397 27.9994 8.56837 27.9993 9.42571 27.9993H21.9413C23.8602 27.9993 24.8196 27.9993 25.5732 27.677C26.5193 27.2723 27.2729 26.5186 27.6776 25.5726C28 24.819 28 23.8595 28 21.9407C28 21.295 28 20.9722 27.9294 20.6716C27.8407 20.2937 27.6706 19.9398 27.431 19.6345C27.2403 19.3916 26.9883 19.1899 26.4841 18.7866L22.7544 15.8029C22.2499 15.3992 21.9976 15.1974 21.7197 15.1262C21.4748 15.0634 21.2172 15.0715 20.9767 15.1496C20.7039 15.2382 20.4648 15.4555 19.9867 15.8902Z" stroke="#667085" stroke-width="2" stroke-linecap="round" stroke-linejoin="round"/>
</svg>
