<svg width="18" height="18" viewBox="0 0 18 18" fill="none" xmlns="http://www.w3.org/2000/svg">
<path d="M15.6304 12.8585C15.3809 13.435 15.0855 13.9656 14.7433 14.4535C14.2768 15.1185 13.8949 15.5789 13.6006 15.8345C13.1443 16.2541 12.6554 16.469 12.1319 16.4813C11.7561 16.4813 11.3029 16.3743 10.7753 16.1574C10.246 15.9415 9.75955 15.8345 9.31478 15.8345C8.84831 15.8345 8.34803 15.9415 7.81292 16.1574C7.27699 16.3743 6.84525 16.4874 6.51516 16.4986C6.01315 16.52 5.51277 16.299 5.0133 15.8345C4.69452 15.5565 4.29578 15.0798 3.81811 14.4046C3.30561 13.6835 2.88426 12.8473 2.55417 11.894C2.20065 10.8643 2.02344 9.86721 2.02344 8.90189C2.02344 7.79612 2.26237 6.84241 2.74096 6.0432C3.11709 5.40125 3.61747 4.89485 4.24374 4.52311C4.87 4.15136 5.54669 3.96192 6.27541 3.9498C6.67415 3.9498 7.19704 4.07314 7.84683 4.31554C8.49479 4.55875 8.91085 4.68209 9.09326 4.68209C9.22963 4.68209 9.69182 4.53787 10.4753 4.25035C11.2163 3.98371 11.8416 3.87331 12.3539 3.9168C13.7421 4.02883 14.7851 4.57607 15.4787 5.56196C14.2371 6.31422 13.623 7.36784 13.6352 8.71948C13.6464 9.77229 14.0283 10.6484 14.779 11.344C15.1191 11.6669 15.499 11.9164 15.9217 12.0936C15.83 12.3595 15.7333 12.6141 15.6304 12.8585ZM12.4466 0.330094C12.4466 1.15528 12.1451 1.92576 11.5442 2.6389C10.8191 3.48669 9.94196 3.97658 8.9908 3.89928C8.97868 3.80028 8.97165 3.69609 8.97165 3.58661C8.97165 2.79443 9.31651 1.94664 9.92892 1.25345C10.2347 0.902484 10.6235 0.610657 11.0951 0.377861C11.5656 0.148538 12.0107 0.0217174 12.4293 0C12.4415 0.110315 12.4466 0.220637 12.4466 0.330083V0.330094Z" fill="black"/>
</svg>
